<svg xmlns="http://www.w3.org/2000/svg" width="25.532" height="25.532" viewBox="0 0 25.532 25.532">
  <g id="call-24px" transform="translate(0)">
    <path id="Path_122" data-name="Path 122" d="M0,0H25.532V25.532H0Z" transform="translate(0)" fill="none"/>
    <path id="Path_123" data-name="Path 123" d="M20.264,16.042l-2.7-.309a2.118,2.118,0,0,0-1.745.606L13.86,18.3a16.006,16.006,0,0,1-7.011-7.011L8.818,9.319a2.118,2.118,0,0,0,.606-1.745L9.115,4.893A2.129,2.129,0,0,0,7,3.01H5.158a2.111,2.111,0,0,0-2.128,2.2,18.076,18.076,0,0,0,16.9,16.9,2.111,2.111,0,0,0,2.2-2.128v-1.84A2.109,2.109,0,0,0,20.264,16.042Z" transform="translate(0.193 0.192)" fill="#c8c8c8"/>
  </g>
</svg>
