<svg id="view_carousel-24px_1_" data-name="view_carousel-24px (1)" xmlns="http://www.w3.org/2000/svg" width="24.078" height="24.078" viewBox="0 0 24.078 24.078">
  <path id="Path_98" data-name="Path 98" d="M0,0H24.078V24.078H0Z" fill="none"/>
  <path id="Path_99" data-name="Path 99" d="M8.02,19.049h8.026a1.006,1.006,0,0,0,1-1V5a1.006,1.006,0,0,0-1-1H8.02a1.006,1.006,0,0,0-1,1V18.046A1.006,1.006,0,0,0,8.02,19.049ZM3,17.042H5.01a1.006,1.006,0,0,0,1-1V7.01a1.006,1.006,0,0,0-1-1H3a1.006,1.006,0,0,0-1,1v9.029A1.006,1.006,0,0,0,3,17.042ZM18.052,7.01v9.029a1.006,1.006,0,0,0,1,1h2.007a1.006,1.006,0,0,0,1-1V7.01a1.006,1.006,0,0,0-1-1H19.055A1.006,1.006,0,0,0,18.052,7.01Z" transform="translate(0.007 0.013)" fill="#73acf6"/>
</svg>
