<svg xmlns="http://www.w3.org/2000/svg" width="19.052" height="16.161" viewBox="0 0 19.052 16.161">
  <g id="team_1_" data-name="team (1)" transform="translate(0 -38.84)">
    <g id="Group_172" data-name="Group 172" transform="translate(14.828 47.565)">
      <g id="Group_171" data-name="Group 171">
        <path id="Path_178" data-name="Path 178" d="M399.967,273.32h-1.473a3.833,3.833,0,0,1,.232,1.317v5.569a1.641,1.641,0,0,1-.095.55h2.436a1.652,1.652,0,0,0,1.65-1.65V276.07A2.753,2.753,0,0,0,399.967,273.32Z" transform="translate(-398.494 -273.32)" fill="#74adf7"/>
      </g>
    </g>
    <g id="Group_174" data-name="Group 174" transform="translate(0 47.565)">
      <g id="Group_173" data-name="Group 173">
        <path id="Path_179" data-name="Path 179" d="M3.991,274.638a3.833,3.833,0,0,1,.232-1.317H2.75A2.753,2.753,0,0,0,0,276.071v3.036a1.652,1.652,0,0,0,1.65,1.65H4.086a1.642,1.642,0,0,1-.095-.55Z" transform="translate(0 -273.321)" fill="#74adf7"/>
      </g>
    </g>
    <g id="Group_176" data-name="Group 176" transform="translate(5.092 46.132)">
      <g id="Group_175" data-name="Group 175" transform="translate(0 0)">
        <path id="Path_180" data-name="Path 180" d="M142.948,234.815h-3.368a2.753,2.753,0,0,0-2.75,2.75v5.569a.55.55,0,0,0,.55.55h7.769a.55.55,0,0,0,.55-.55v-5.569A2.753,2.753,0,0,0,142.948,234.815Z" transform="translate(-136.829 -234.815)" fill="#74adf7"/>
      </g>
    </g>
    <g id="Group_178" data-name="Group 178" transform="translate(6.218 38.84)" opacity="0.7">
      <g id="Group_177" data-name="Group 177" transform="translate(0 0)">
        <path id="Path_181" data-name="Path 181" d="M170.422,38.84a3.307,3.307,0,1,0,3.308,3.308A3.311,3.311,0,0,0,170.422,38.84Z" transform="translate(-167.114 -38.84)" fill="#fff"/>
      </g>
    </g>
    <g id="Group_180" data-name="Group 180" transform="translate(1.244 41.923)">
      <g id="Group_179" data-name="Group 179">
        <path id="Path_182" data-name="Path 182" d="M35.917,121.689a2.472,2.472,0,1,0,2.474,2.474A2.476,2.476,0,0,0,35.917,121.689Z" transform="translate(-33.443 -121.689)" fill="#74adf7"/>
      </g>
    </g>
    <g id="Group_182" data-name="Group 182" transform="translate(12.86 41.923)">
      <g id="Group_181" data-name="Group 181">
        <path id="Path_183" data-name="Path 183" d="M348.081,121.689a2.474,2.474,0,1,0,2.474,2.474A2.476,2.476,0,0,0,348.081,121.689Z" transform="translate(-345.607 -121.689)" fill="#74adf7"/>
      </g>
    </g>
  </g>
</svg>
