<svg xmlns="http://www.w3.org/2000/svg" width="18.301" height="21.961" viewBox="0 0 18.301 21.961">
  <path id="Path_90" data-name="Path 90" d="M17.556,0H4.745a.915.915,0,1,0,0,1.83H17.556a.915.915,0,1,0,0-1.83ZM4.745,21.961H17.556a.915.915,0,1,0,0-1.83H4.745a.915.915,0,1,0,0,1.83ZM18.471,3.66H3.83A1.835,1.835,0,0,0,2,5.49V16.471A1.835,1.835,0,0,0,3.83,18.3H18.471a1.835,1.835,0,0,0,1.83-1.83V5.49A1.835,1.835,0,0,0,18.471,3.66Zm-7.32,2.516A2.059,2.059,0,1,1,9.092,8.235,2.062,2.062,0,0,1,11.151,6.177Zm4.575,9.379H6.575V14.183c0-1.528,3.047-2.288,4.575-2.288s4.575.759,4.575,2.288Z" transform="translate(-2)"/>
</svg>
