<svg xmlns="http://www.w3.org/2000/svg" width="67" height="67" viewBox="0 0 67 67">
  <g id="Group_128" data-name="Group 128" transform="translate(-1554 -215)">
    <rect id="Rectangle_63" data-name="Rectangle 63" width="67" height="67" rx="10" transform="translate(1554 215)" fill="#d250e6" opacity="0.1"/>
    <g id="Iconly_Bulk_Calendar" data-name="Iconly/Bulk/Calendar" transform="translate(1573 232.333)">
      <g id="Calendar" transform="translate(0 0)">
        <path id="Fill_1" data-name="Fill 1" d="M27.68,9.174V8.512a7.367,7.367,0,0,0-.7-3.442,4.391,4.391,0,0,0-2.2-2.011,7.581,7.581,0,0,0-2.347-.592V.1a11.574,11.574,0,0,1,2.361.471V.563a1.206,1.206,0,0,0,.142.054c.063.022.115.045.178.066.168.054.323.12.485.186.093.033.178.077.252.11.126.054.255.12.357.174s.207.115.3.165.157.1.232.149a7.166,7.166,0,0,1,1.2.972l.012.023a4.887,4.887,0,0,1,.381.426l.009.021a8.831,8.831,0,0,1,1.649,5.622v.645Zm-27.669,0V8.535A8.833,8.833,0,0,1,1.664,2.916L1.687,2.9c.115-.142.242-.279.367-.428l.023-.021a6.766,6.766,0,0,1,1.19-.972c.084-.051.159-.105.243-.149l.285-.165c.117-.054.241-.12.359-.174.084-.033.168-.077.252-.11.159-.066.329-.132.5-.186A.851.851,0,0,1,5.08.626C5.125.6,5.17.594,5.224.572V.581A11.406,11.406,0,0,1,7.582.11V.1l.027.01V2.481H7.588a7.914,7.914,0,0,0-2.382.594C3.214,3.971,2.32,5.72,2.32,8.529v.645Zm9.9-6.791V0H20.149V2.384Z" transform="translate(0.001 2.752)" fill="#d250e6" opacity="0.4"/>
        <path id="Fill_4" data-name="Fill 4" d="M2.4,1.195V6.447a1.2,1.2,0,0,1-2.4,0V1.207a1.2,1.2,0,0,1,2.4-.018Z" transform="translate(20.1 0)" fill="#d250e6"/>
        <path id="Fill_6" data-name="Fill 6" d="M2.4,1.2v5.24a1.2,1.2,0,1,1-2.4,0V1.2a1.2,1.2,0,1,1,2.4,0" transform="translate(7.5 0.012)" fill="#d250e6"/>
        <path id="Fill_8" data-name="Fill 8" d="M20.615,21.407H9.37C3.153,21.407,0,18.553,0,12.924V0H30V12.924C30,18.553,26.842,21.407,20.615,21.407Zm1.231-9.59a1.4,1.4,0,0,0-1.374,1.416,1.424,1.424,0,0,0,1.388,1.418,1.417,1.417,0,0,0,0-2.834ZM14.993,11.8a1.424,1.424,0,0,0-1.372,1.431A1.381,1.381,0,1,0,15.008,11.8Zm-6.852,0a1.349,1.349,0,0,0-.968.409,1.412,1.412,0,0,0-.406,1.022A1.374,1.374,0,1,0,8.141,11.8ZM21.86,5.769a1.38,1.38,0,0,0-1.372,1.416A1.374,1.374,0,1,0,21.86,5.769Zm-6.867-.015A1.424,1.424,0,0,0,13.62,7.185a1.381,1.381,0,1,0,1.387-1.431Zm-6.852,0a1.424,1.424,0,0,0,0,2.847,1.348,1.348,0,0,0,.969-.409,1.409,1.409,0,0,0,.4-1.022A1.39,1.39,0,0,0,8.154,5.754Z" transform="translate(0 11.927)" fill="#d250e6"/>
      </g>
    </g>
  </g>
</svg>
