<svg id="Iconly_Bulk_Document" data-name="Iconly/Bulk/Document" xmlns="http://www.w3.org/2000/svg" width="19.5" height="21.667" viewBox="0 0 19.5 21.667">
  <g id="Document" transform="translate(0 0)">
    <path id="Path" d="M14.29,0H5.211C1.918,0,0,1.928,0,5.233V16.423c0,3.358,1.918,5.243,5.211,5.243H14.29c3.346,0,5.21-1.885,5.21-5.243V5.233C19.5,1.928,17.637,0,14.29,0" fill="#fff" opacity="0.4"/>
    <path id="Combined_Shape" data-name="Combined Shape" d="M.129,11.158a.864.864,0,0,1,0-.91.851.851,0,0,1,.813-.4H9.436a.856.856,0,0,1,0,1.7H.943a.793.793,0,0,1-.106.007A.849.849,0,0,1,.129,11.158ZM.943,6.6a.846.846,0,0,1,0-1.692H9.436a.846.846,0,0,1,0,1.692Zm0-4.9a.845.845,0,1,1,0-1.69V0H4.181a.85.85,0,0,1,0,1.7Z" transform="translate(4.561 5.037)" fill="#fff"/>
  </g>
</svg>
