<?xml version="1.0" encoding="utf-8"?>
<svg version="1.1" xmlns:xlink="http://www.w3.org/1999/xlink" width="19px" height="19px" xmlns="http://www.w3.org/2000/svg">
  <g transform="matrix(1 0 0 1 -2259 -127 )">
    <path d="M 4.35416666666667 12.765625  L 4.99739583333333 12.1223958333333  L 6.87760416666667 14.0026041666667  L 6.234375 14.6458333333333  L 5.54166666666667 14.6458333333333  L 5.54166666666667 13.4583333333333  L 4.35416666666667 13.4583333333333  L 4.35416666666667 12.765625  Z M 9.74739583333333 7.33528645833333  C 9.88758680555556 7.19509548611111  10.0112847222222 7.18272569444444  10.1184895833333 7.29817708333333  C 10.2339409722222 7.40538194444444  10.2215711805556 7.52907986111111  10.0813802083333 7.66927083333333  L 6.48177083333333 11.2688802083333  C 6.34157986111111 11.4090711805556  6.21788194444444 11.4214409722222  6.11067708333333 11.3059895833333  C 5.99522569444444 11.1987847222222  6.00759548611111 11.0750868055556  6.14778645833333 10.9348958333333  L 9.74739583333333 7.33528645833333  Z M 3.16666666666667 15.8333333333333  L 6.72916666666667 15.8333333333333  L 13.4583333333333 9.10416666666667  L 9.89583333333333 5.54166666666667  L 3.16666666666667 12.2708333333333  L 3.16666666666667 15.8333333333333  Z M 10.6875 4.75  L 14.25 8.3125  L 15.3880208333333 7.17447916666667  C 15.6189236111111 6.94357638888889  15.734375 6.66319444444444  15.734375 6.33333333333333  C 15.734375 6.00347222222222  15.6189236111111 5.72309027777778  15.3880208333333 5.4921875  L 13.5078125 3.61197916666667  C 13.2769097222222 3.38107638888889  12.9965277777778 3.265625  12.6666666666667 3.265625  C 12.3368055555556 3.265625  12.0564236111111 3.38107638888889  11.8255208333333 3.61197916666667  L 10.6875 4.75  Z M 17.9547526041667 1.04524739583333  C 18.6515842013889 1.74207899305555  19 2.58116319444444  19 3.5625  L 19 15.4375  C 19 16.4188368055556  18.6515842013889 17.2579210069444  17.9547526041667 17.9547526041667  C 17.2579210069444 18.6515842013889  16.4188368055556 19  15.4375 19  L 3.5625 19  C 2.58116319444444 19  1.74207899305556 18.6515842013889  1.04524739583333 17.9547526041667  C 0.348415798611111 17.2579210069444  0 16.4188368055556  0 15.4375  L 0 3.5625  C 0 2.58116319444444  0.348415798611111 1.74207899305555  1.04524739583333 1.04524739583333  C 1.74207899305556 0.34841579861111  2.58116319444444 0  3.5625 0  L 15.4375 0  C 16.4188368055556 0  17.2579210069444 0.34841579861111  17.9547526041667 1.04524739583333  Z " fill-rule="nonzero" fill="#7f7f7f" stroke="none" transform="matrix(1 0 0 1 2259 127 )" />
  </g>
</svg>