<svg xmlns="http://www.w3.org/2000/svg" width="67" height="67" viewBox="0 0 67 67">
  <g id="check_circle-24px" transform="translate(16.83 16.756)">
    <path id="Path_119" data-name="Path 119" d="M0,0H33.969V33.969H0Z" fill="none"/>
    <path id="Path_120" data-name="Path 120" d="M16.154,2A14.154,14.154,0,1,0,30.308,16.154,14.159,14.159,0,0,0,16.154,2ZM12.318,22.226,7.237,17.145a1.411,1.411,0,1,1,2-2l4.09,4.076,9.738-9.738a1.411,1.411,0,0,1,2,2L14.314,22.226a1.41,1.41,0,0,1-2,0Z" transform="translate(0.831 0.831)" fill="#11d961"/>
    <rect id="Rectangle_65" data-name="Rectangle 65" width="67" height="67" rx="10" transform="translate(-16.83 -16.756)" fill="#11d961" opacity="0.1"/>
  </g>
</svg>
