<svg id="global" xmlns="http://www.w3.org/2000/svg" width="20.765" height="20.743" viewBox="0 0 20.765 20.743">
  <g id="Group_16" data-name="Group 16" transform="translate(11.343)">
    <g id="Group_15" data-name="Group 15" transform="translate(0 0)">
      <path id="Path_102" data-name="Path 102" d="M260.113.256a21.007,21.007,0,0,1,2.734,5.574,12.042,12.042,0,0,0,4.1-1.436l.372-.231A10.4,10.4,0,0,0,260.113.256Z" transform="translate(-260.113 -0.256)" fill="#c8c8c8"/>
    </g>
  </g>
  <g id="Group_18" data-name="Group 18" transform="translate(7.428 7.245)">
    <g id="Group_17" data-name="Group 17">
      <path id="Path_103" data-name="Path 103" d="M175.886,166.4a22.87,22.87,0,0,1-5.21,0,14.216,14.216,0,0,0-.35,2.382h5.909A14.216,14.216,0,0,0,175.886,166.4Z" transform="translate(-170.326 -166.4)" fill="#c8c8c8"/>
    </g>
  </g>
  <g id="Group_20" data-name="Group 20" transform="translate(8.187 14.837)">
    <g id="Group_19" data-name="Group 19">
      <path id="Path_104" data-name="Path 104" d="M189.929,340.48a21.587,21.587,0,0,0-2.2.114,19.976,19.976,0,0,0,2.2,4.547,19.978,19.978,0,0,0,2.2-4.547A21.588,21.588,0,0,0,189.929,340.48Z" transform="translate(-187.733 -340.48)" fill="#c8c8c8"/>
    </g>
  </g>
  <g id="Group_22" data-name="Group 22" transform="translate(14.465 11.116)">
    <g id="Group_21" data-name="Group 21">
      <path id="Path_105" data-name="Path 105" d="M332.045,255.147a15.763,15.763,0,0,1-.355,2.609,13.322,13.322,0,0,1,4.5,1.617l.421.262a10.351,10.351,0,0,0,1.381-4.488Z" transform="translate(-331.69 -255.147)" fill="#c8c8c8"/>
    </g>
  </g>
  <g id="Group_24" data-name="Group 24" transform="translate(14.465 5.14)">
    <g id="Group_23" data-name="Group 23">
      <path id="Path_106" data-name="Path 106" d="M336.609,118.118l-.421.262a13.322,13.322,0,0,1-4.5,1.62,15.769,15.769,0,0,1,.355,2.6h5.945A10.35,10.35,0,0,0,336.609,118.118Z" transform="translate(-331.69 -118.118)" fill="#c8c8c8"/>
    </g>
  </g>
  <g id="Group_26" data-name="Group 26" transform="translate(7.428 11.116)">
    <g id="Group_25" data-name="Group 25">
      <path id="Path_107" data-name="Path 107" d="M170.325,255.147a14.206,14.206,0,0,0,.351,2.382,22.957,22.957,0,0,1,5.21,0,14.209,14.209,0,0,0,.348-2.382Z" transform="translate(-170.325 -255.147)" fill="#c8c8c8"/>
    </g>
  </g>
  <g id="Group_28" data-name="Group 28" transform="translate(0 5.14)">
    <g id="Group_27" data-name="Group 27">
      <path id="Path_108" data-name="Path 108" d="M1.8,118.38l-.421-.262A10.351,10.351,0,0,0,0,122.605H5.945A15.765,15.765,0,0,1,6.3,120,13.322,13.322,0,0,1,1.8,118.38Z" transform="translate(0 -118.118)" fill="#c8c8c8"/>
    </g>
  </g>
  <g id="Group_30" data-name="Group 30" transform="translate(2.217 15.17)">
    <g id="Group_29" data-name="Group 29">
      <path id="Path_109" data-name="Path 109" d="M55.313,348.109a12.056,12.056,0,0,0-4.1,1.435l-.372.232a10.394,10.394,0,0,0,7.2,3.907A20.99,20.99,0,0,1,55.313,348.109Z" transform="translate(-50.842 -348.109)" fill="#c8c8c8"/>
    </g>
  </g>
  <g id="Group_32" data-name="Group 32" transform="translate(8.187 1.246)">
    <g id="Group_31" data-name="Group 31">
      <path id="Path_110" data-name="Path 110" d="M189.929,28.826a19.989,19.989,0,0,0-2.2,4.546,21.225,21.225,0,0,0,4.391,0A19.987,19.987,0,0,0,189.929,28.826Z" transform="translate(-187.733 -28.826)" fill="#c8c8c8"/>
    </g>
  </g>
  <g id="Group_34" data-name="Group 34" transform="translate(11.341 15.17)">
    <g id="Group_33" data-name="Group 33">
      <path id="Path_111" data-name="Path 111" d="M266.9,349.543a12.057,12.057,0,0,0-4.1-1.435,20.986,20.986,0,0,1-2.736,5.573,10.394,10.394,0,0,0,7.2-3.907Z" transform="translate(-260.062 -348.108)" fill="#c8c8c8"/>
    </g>
  </g>
  <g id="Group_36" data-name="Group 36" transform="translate(2.219 0)">
    <g id="Group_35" data-name="Group 35" transform="translate(0 0)">
      <path id="Path_112" data-name="Path 112" d="M50.893,4.164l.37.231a12.043,12.043,0,0,0,4.1,1.436A21,21,0,0,1,58.1.257,10.4,10.4,0,0,0,50.893,4.164Z" transform="translate(-50.893 -0.257)" fill="#c8c8c8"/>
    </g>
  </g>
  <g id="Group_38" data-name="Group 38" transform="translate(0 11.116)">
    <g id="Group_37" data-name="Group 37">
      <path id="Path_113" data-name="Path 113" d="M5.945,255.147H0a10.35,10.35,0,0,0,1.381,4.488l.421-.262a13.323,13.323,0,0,1,4.5-1.617A15.755,15.755,0,0,1,5.945,255.147Z" transform="translate(0 -255.147)" fill="#c8c8c8"/>
    </g>
  </g>
</svg>
