<svg xmlns="http://www.w3.org/2000/svg" xmlns:xlink="http://www.w3.org/1999/xlink" width="118" height="120" viewBox="0 0 118 120">
  <defs>
    <filter id="Path_156" x="0" y="0" width="118" height="120" filterUnits="userSpaceOnUse">
      <feOffset dx="10" dy="13" input="SourceAlpha"/>
      <feGaussianBlur stdDeviation="13" result="blur"/>
      <feFlood flood-color="#5454b7" flood-opacity="0.161"/>
      <feComposite operator="in" in2="blur"/>
      <feComposite in="SourceGraphic"/>
    </filter>
  </defs>
  <g id="Group_82" data-name="Group 82" transform="translate(29 26)">
    <g transform="matrix(1, 0, 0, 1, -29, -26)" filter="url(#Path_156)">
      <path id="Path_156-2" data-name="Path 156" d="M3,0H37a3,3,0,0,1,3,3V39a3,3,0,0,1-3,3H3a3,3,0,0,1-3-3V3A3,3,0,0,1,3,0Z" transform="translate(29 26)" fill="#fff"/>
    </g>
    <path id="Path_153" data-name="Path 153" d="M11.25,21h19.5" fill="none" stroke="#3b72ff" stroke-linecap="round" stroke-linejoin="round" stroke-width="2"/>
    <path id="Path_154" data-name="Path 154" d="M11.25,14.5h19.5" fill="none" stroke="#3b72ff" stroke-linecap="round" stroke-linejoin="round" stroke-width="2"/>
    <path id="Path_155" data-name="Path 155" d="M24.25,27.5H34.927" transform="translate(-13)" fill="none" stroke="#3b72ff" stroke-linecap="round" stroke-linejoin="round" stroke-width="2"/>
  </g>
</svg>
