<svg xmlns="http://www.w3.org/2000/svg" width="67" height="67" viewBox="0 0 67 67">
  <g id="Group_129" data-name="Group 129" transform="translate(-1307 -215)">
    <g id="Iconly_Bulk_Wallet" data-name="Iconly/Bulk/Wallet" transform="translate(1327 236)">
      <g id="Wallet">
        <path id="Fill_1" data-name="Fill 1" d="M20.324,26H7.677a7.743,7.743,0,0,1-5.648-2.041A7.841,7.841,0,0,1,0,18.278V7.71A7.823,7.823,0,0,1,2.029,2.035,7.753,7.753,0,0,1,7.677,0H20.319a7.751,7.751,0,0,1,5.648,2.035A7.824,7.824,0,0,1,27.995,7.71v.053H22.067a5.043,5.043,0,0,0-3.537,8.593,4.954,4.954,0,0,0,3.537,1.48H28v.442a7.842,7.842,0,0,1-2.028,5.681A7.741,7.741,0,0,1,20.324,26ZM6.635,5.6A1.08,1.08,0,0,0,5.88,7.434a1.06,1.06,0,0,0,.756.319h7.912a1.06,1.06,0,0,0,.756-.319A1.08,1.08,0,0,0,14.539,5.6Z" fill="#0056fb"/>
        <path id="Fill_4" data-name="Fill 4" d="M.053,3.4A2.859,2.859,0,0,0,2.88,5.666h4.6A1.028,1.028,0,0,0,8.5,4.627V1.041A1.031,1.031,0,0,0,7.484,0H2.771A2.812,2.812,0,0,0,0,2.848,2.877,2.877,0,0,0,.053,3.4" transform="translate(19.667 10.025)" fill="#0056fb" opacity="0.4"/>
        <circle id="Oval" cx="1.417" cy="1.417" r="1.417" transform="translate(21.083 11.442)" fill="#0056fb"/>
      </g>
    </g>
    <rect id="Rectangle_61" data-name="Rectangle 61" width="67" height="67" rx="10" transform="translate(1307 215)" fill="#0056fb" opacity="0.1"/>
  </g>
</svg>
