<svg xmlns="http://www.w3.org/2000/svg" xmlns:xlink="http://www.w3.org/1999/xlink" width="20" height="20" viewBox="0 0 20 20">
  <defs>
    <clipPath id="clip-path">
      <rect id="Rectangle_73" data-name="Rectangle 73" width="20" height="20" transform="translate(21 18)" fill="#fff"/>
    </clipPath>
  </defs>
  <g id="Group_76" data-name="Group 76" transform="translate(-21 -18)" clip-path="url(#clip-path)">
    <path id="Path_150" data-name="Path 150" d="M28.5,28A2.5,2.5,0,0,1,31,25.5h3.333V18.834A.833.833,0,0,0,33.5,18H21.833a.833.833,0,0,0-.833.833V37.167a.833.833,0,0,0,.833.833H33.5a.833.833,0,0,0,.833-.833V30.5H31A2.5,2.5,0,0,1,28.5,28Z" fill="#ffeced"/>
    <path id="Path_151" data-name="Path 151" d="M40.812,28.527l.007-.01c.014-.018.028-.036.041-.056l.017-.028c.009-.014.017-.027.025-.042s.012-.024.017-.036.012-.025.017-.037.01-.028.015-.041.009-.023.012-.035.009-.033.013-.049.005-.019.007-.029.008-.046.01-.068c0,0,0-.008,0-.012a.847.847,0,0,0,0-.168s0-.008,0-.012c0-.023-.006-.046-.01-.068s0-.019-.007-.029-.008-.033-.013-.049-.008-.023-.012-.035-.01-.028-.015-.041-.011-.025-.017-.037-.011-.024-.017-.036-.016-.028-.025-.042l-.017-.028c-.013-.019-.027-.038-.041-.056l-.007-.01a.868.868,0,0,0-.06-.066l-3.33-3.33a.833.833,0,1,0-1.178,1.178l1.911,1.911H31a.833.833,0,0,0,0,1.667h7.155l-1.911,1.911a.833.833,0,1,0,1.178,1.178l3.33-3.33A.829.829,0,0,0,40.812,28.527Z" fill="#ffeced"/>
  </g>
</svg>
