<svg id="mail-24px_2_" data-name="mail-24px (2)" xmlns="http://www.w3.org/2000/svg" width="24.605" height="24.605" viewBox="0 0 24.605 24.605">
  <path id="Path_100" data-name="Path 100" d="M0,0H24.6V24.6H0Z" fill="none"/>
  <path id="Path_101" data-name="Path 101" d="M20.454,4H4.05A2.056,2.056,0,0,0,2,6.05v12.3A2.056,2.056,0,0,0,4.05,20.4h16.4a2.056,2.056,0,0,0,2.05-2.05V6.05A2.056,2.056,0,0,0,20.454,4Zm-.41,4.357-6.7,4.193a2.031,2.031,0,0,1-2.173,0L4.46,8.357a.87.87,0,1,1,.923-1.476l6.869,4.3,6.869-4.3a.87.87,0,1,1,.923,1.476Z" transform="translate(0.05 0.101)" fill="#ddd"/>
</svg>
