<svg xmlns="http://www.w3.org/2000/svg" width="22.488" height="22.488" viewBox="0 0 22.488 22.488">
  <g id="money" opacity="0.9">
    <path id="Path_124" data-name="Path 124" d="M127.142,288.912l-2.492,3.259a2.635,2.635,0,0,1-2.093,1.035H117.93a.659.659,0,1,1,0-1.318h4.011a1.562,1.562,0,0,0,1.567-1.567,1.537,1.537,0,0,0-1.537-1.507h-4.612a3.816,3.816,0,0,0-4.862-.354l-.5.354v7.467h11.458a3.953,3.953,0,0,0,3.325-1.815l2.571-4a1.352,1.352,0,0,0-2.212-1.553Z" transform="translate(-107.081 -275.11)" fill="#e0e0e0"/>
    <path id="Path_125" data-name="Path 125" d="M2.943,282H.659a.659.659,0,0,0-.659.659v8.785a.659.659,0,0,0,.659.659H2.943a.659.659,0,0,0,.659-.659v-8.785A.659.659,0,0,0,2.943,282Z" transform="translate(0 -269.614)" fill="#e0e0e0"/>
    <path id="Path_126" data-name="Path 126" d="M280.974,82.9a.654.654,0,0,0-.233.393.455.455,0,0,0,.113.441c.037.029.077.057.12.085Z" transform="translate(-268.398 -79.264)" fill="#e0e0e0"/>
    <path id="Path_127" data-name="Path 127" d="M177.49,10.981A5.49,5.49,0,1,0,172,5.49,5.5,5.5,0,0,0,177.49,10.981Zm-1.662-3.7a.439.439,0,0,1,.608-.127,1.33,1.33,0,0,0,.584.25V5.554a3.239,3.239,0,0,1-.662-.387,1.314,1.314,0,0,1-.434-1.294,1.479,1.479,0,0,1,1.015-1.16l.082-.023V2.416a.439.439,0,0,1,.878,0v.225a1.525,1.525,0,0,1,.874.451.439.439,0,0,1-.66.58.605.605,0,0,0-.214-.127V4.965l.232.084A1.572,1.572,0,0,1,179.2,6.827a1.786,1.786,0,0,1-1.3,1.423v.315a.439.439,0,0,1-.878,0V8.293a2.127,2.127,0,0,1-1.065-.4A.439.439,0,0,1,175.828,7.285Z" transform="translate(-164.445)" fill="#e0e0e0"/>
    <path id="Path_128" data-name="Path 128" d="M306.744,135.12a.68.68,0,0,0-.435-.781v1.411A.908.908,0,0,0,306.744,135.12Z" transform="translate(-292.855 -128.438)" fill="#e0e0e0"/>
  </g>
</svg>
