<svg xmlns="http://www.w3.org/2000/svg" width="67" height="67" viewBox="0 0 67 67">
  <g id="Group_126" data-name="Group 126" transform="translate(-781 -215)">
    <rect id="Rectangle_63" data-name="Rectangle 63" width="67" height="67" rx="10" transform="translate(781 215)" fill="#a6f0e3" opacity="0.1"/>
    <g id="translation" transform="translate(797.756 231.756)">
      <path id="Path_114" data-name="Path 114" d="M370.01,35.021a4.383,4.383,0,0,1,4.378,4.378,1.01,1.01,0,0,0,2.021,0,6.406,6.406,0,0,0-6.4-6.4,1.01,1.01,0,0,0,0,2.021Z" transform="translate(-344.145 -30.777)" fill="#18eec8"/>
      <path id="Path_115" data-name="Path 115" d="M39.4,374.389a4.383,4.383,0,0,1-4.378-4.378,1.01,1.01,0,0,0-2.021,0,6.406,6.406,0,0,0,6.4,6.4,1.01,1.01,0,0,0,0-2.021Z" transform="translate(-30.777 -344.145)" fill="#18eec8"/>
      <path id="Path_116" data-name="Path 116" d="M10.069,15.56,9.58,17.024a1.01,1.01,0,1,1-1.917-.639l3.233-9.7a1.01,1.01,0,0,1,1.917,0l1.656,4.97a13.714,13.714,0,0,1,8.755-2.724A11.788,11.788,0,1,0,8.932,23.225,13.7,13.7,0,0,1,10.92,15.56Z" transform="translate(0)" fill="#18eec8"/>
      <path id="Path_117" data-name="Path 117" d="M174.592,162.831a11.76,11.76,0,1,0,11.76,11.76A11.76,11.76,0,0,0,174.592,162.831Zm-3.745,16.256a1.01,1.01,0,0,1-1.262-1.578c1.54-1.232,2.1-4.01,2.263-5.745h-1.632a1.01,1.01,0,0,1,0-2.021h2.694a1.011,1.011,0,0,1,1.01,1.01C173.92,170.993,173.885,176.656,170.847,179.087Zm7.991-4.628h-1.145v4.917a1.01,1.01,0,0,1-2.021,0v-9.7a1.01,1.01,0,0,1,2.021,0v2.762h1.145a1.01,1.01,0,0,1,0,2.021Z" transform="translate(-151.864 -151.863)" fill="#18eec8"/>
      <path id="Path_118" data-name="Path 118" d="M159.48,154.769h2.226c-.188-.563.018.054-1.113-3.339Z" transform="translate(-148.738 -141.23)" fill="#18eec8"/>
    </g>
  </g>
</svg>
