<svg id="Iconly_Bulk_Profile" data-name="Iconly/Bulk/Profile" xmlns="http://www.w3.org/2000/svg" width="19.5" height="21.667" viewBox="0 0 19.5 21.667">
  <g id="Profile" transform="translate(0 0)">
    <ellipse id="Ellipse_744" cx="6.094" cy="6.019" rx="6.094" ry="6.019" transform="translate(3.656 0)" fill="#fff" opacity="0.4"/>
    <path id="Path_34198" d="M19.489,3.621h0a2.009,2.009,0,0,0,0-.257,2.322,2.322,0,0,0-.264-.91C18.633,1.3,16.972.772,15.586.475a20.45,20.45,0,0,0-3-.4L11.524,0H7.97L6.912.079a20.45,20.45,0,0,0-3,.4C2.522.732.861,1.266.269,2.454A2.322,2.322,0,0,0,0,3.364a2.008,2.008,0,0,0,0,.257H0a2.175,2.175,0,0,0,0,.257,2.325,2.325,0,0,0,.275.9C.872,5.936,2.532,6.46,3.918,6.757a23.516,23.516,0,0,0,3,.4l1.058.069h3.554l1.058-.069a23.516,23.516,0,0,0,3-.4c1.386-.267,3.047-.791,3.639-1.979a2.565,2.565,0,0,0,.264-.92A1.935,1.935,0,0,0,19.489,3.621Z" transform="translate(0 14.444)" fill="#fff"/>
  </g>
</svg>
