<svg xmlns="http://www.w3.org/2000/svg" width="23.244" height="23.244" viewBox="0 0 23.244 23.244">
  <g id="request" transform="translate(0 0)" opacity="0.9">
    <path id="Path_129" data-name="Path 129" d="M204.423,0H195.67A2.867,2.867,0,0,0,192.8,2.869V16a.681.681,0,0,0,1.09.545l2.736-2.052h7.8a2.867,2.867,0,0,0,2.869-2.869V2.869A2.867,2.867,0,0,0,204.423,0Zm-5.057,10.844H196.4a.681.681,0,1,1,0-1.362h2.966a.681.681,0,1,1,0,1.362Zm4.328-2.918H196.4a.681.681,0,1,1,0-1.362h7.294a.681.681,0,1,1,0,1.362Zm0-2.918H196.4a.681.681,0,1,1,0-1.362h7.294a.681.681,0,1,1,0,1.362Zm0,0" transform="translate(-184.048)" fill="#ddd"/>
    <path id="Path_130" data-name="Path 130" d="M30.863,244.207a3.219,3.219,0,1,1-3.219-3.219A3.219,3.219,0,0,1,30.863,244.207Zm0,0" transform="translate(-23.317 -230.048)" fill="#ddd"/>
    <path id="Path_131" data-name="Path 131" d="M4.328,382.8A4.328,4.328,0,0,0,0,387.133v.856a.681.681,0,0,0,.681.681H7.975a.681.681,0,0,0,.681-.681v-.856A4.328,4.328,0,0,0,4.328,382.8Zm0,0" transform="translate(0 -365.427)" fill="#ddd"/>
  </g>
</svg>
