<svg xmlns="http://www.w3.org/2000/svg" width="20.572" height="17.999" viewBox="0 0 20.572 17.999">
  <g id="interview" transform="translate(0 -2.243)">
    <path id="Path_184" data-name="Path 184" d="M201.306,0H194.9a2.1,2.1,0,0,0-2.1,2.1v9.608a.5.5,0,0,0,.8.4l2-1.5h5.706a2.1,2.1,0,0,0,2.1-2.1V2.1a2.1,2.1,0,0,0-2.1-2.1Zm-3.7,7.936h-2.171a.5.5,0,0,1,0-1H197.6a.5.5,0,0,1,0,1ZM200.772,5.8h-5.338a.5.5,0,0,1,0-1h5.338a.5.5,0,1,1,0,1Zm0-2.135h-5.338a.5.5,0,0,1,0-1h5.338a.5.5,0,1,1,0,1Zm0,0" transform="translate(-182.834 2.244)" fill="#bad6fa"/>
    <path id="Path_185" data-name="Path 185" d="M32.011,244.781a3.793,3.793,0,1,1-3.793-3.793A3.793,3.793,0,0,1,32.011,244.781Zm0,0" transform="translate(-23.119 -235.241)" fill="#74adf7"/>
    <path id="Path_186" data-name="Path 186" d="M5.1,382.805A5.1,5.1,0,0,0,0,387.9v1.009a.8.8,0,0,0,.8.8H9.4a.8.8,0,0,0,.8-.8V387.9a5.1,5.1,0,0,0-5.1-5.1Zm0,0" transform="translate(0 -369.473)" fill="#74adf7"/>
  </g>
</svg>
