<svg id="translation" xmlns="http://www.w3.org/2000/svg" width="21.113" height="21.113" viewBox="0 0 21.113 21.113">
  <path id="Path_114" data-name="Path 114" d="M369.619,34.237a2.683,2.683,0,0,1,2.68,2.68.619.619,0,1,0,1.237,0A3.922,3.922,0,0,0,369.619,33a.619.619,0,0,0,0,1.237Z" transform="translate(-353.784 -31.639)" fill="#c8c8c8"/>
  <path id="Path_115" data-name="Path 115" d="M36.917,372.3a2.683,2.683,0,0,1-2.68-2.68.619.619,0,0,0-1.237,0,3.922,3.922,0,0,0,3.917,3.917.619.619,0,1,0,0-1.237Z" transform="translate(-31.639 -353.784)" fill="#c8c8c8"/>
  <path id="Path_116" data-name="Path 116" d="M6.164,9.525l-.3.9a.618.618,0,1,1-1.174-.391L6.671,4.093a.618.618,0,0,1,1.174,0L8.858,7.135a8.4,8.4,0,0,1,5.36-1.668,7.217,7.217,0,1,0-8.75,8.75A8.388,8.388,0,0,1,6.685,9.525Z" transform="translate(0 0)" fill="#c8c8c8"/>
  <path id="Path_117" data-name="Path 117" d="M170.031,162.831a7.2,7.2,0,1,0,7.2,7.2A7.2,7.2,0,0,0,170.031,162.831Zm-2.293,9.951a.618.618,0,0,1-.773-.966c.943-.754,1.289-2.455,1.386-3.517h-1a.619.619,0,0,1,0-1.237H169a.619.619,0,0,1,.619.619C169.62,167.828,169.6,171.294,167.739,172.782Zm4.892-2.833h-.7v3.01a.619.619,0,0,1-1.237,0v-5.938a.619.619,0,0,1,1.237,0v1.691h.7a.619.619,0,0,1,0,1.237Z" transform="translate(-156.118 -156.117)" fill="#c8c8c8"/>
  <path id="Path_118" data-name="Path 118" d="M159.48,153.474h1.362l-.681-2.044Z" transform="translate(-152.904 -145.186)" fill="#c8c8c8"/>
</svg>
