<svg xmlns="http://www.w3.org/2000/svg" width="19" height="17" viewBox="0 0 19 17">
  <g id="Iconly_Bulk_Wallet" data-name="Iconly/Bulk/Wallet" opacity="0.7">
    <g id="Wallet">
      <path id="Fill_1" data-name="Fill 1" d="M13.791,17H5.21a5.371,5.371,0,0,1-3.833-1.335A5.019,5.019,0,0,1,0,11.951V5.041A5.008,5.008,0,0,1,1.377,1.331,5.378,5.378,0,0,1,5.21,0h8.578A5.377,5.377,0,0,1,17.62,1.331,5.008,5.008,0,0,1,19,5.041v.035H14.974a3.354,3.354,0,0,0-3.392,3.289,3.222,3.222,0,0,0,.991,2.33,3.426,3.426,0,0,0,2.4.967H19v.289a5.02,5.02,0,0,1-1.376,3.714A5.369,5.369,0,0,1,13.791,17ZM4.5,3.659a.719.719,0,0,0-.723.7.689.689,0,0,0,.211.5.733.733,0,0,0,.513.209H9.871a.733.733,0,0,0,.513-.209.69.69,0,0,0,.211-.5.719.719,0,0,0-.729-.7Z" fill="#fff"/>
      <path id="Fill_4" data-name="Fill 4" d="M.035,2.234a1.9,1.9,0,0,0,1.88,1.494H4.979a.68.68,0,0,0,.676-.684V.685A.682.682,0,0,0,4.979,0H1.844A1.872,1.872,0,0,0,.035,2.234" transform="translate(13.27 6.543)" fill="#fff" opacity="0.4"/>
      <ellipse id="Oval" cx="0.942" cy="0.932" rx="0.942" ry="0.932" transform="translate(14.212 7.475)" fill="#fff"/>
    </g>
  </g>
</svg>
