<svg xmlns="http://www.w3.org/2000/svg" width="13.717" height="19.5" viewBox="0 0 13.717 19.5">
  <g id="support" transform="translate(-82.022 -8.666)">
    <path id="Path_187" data-name="Path 187" d="M94.887,13.4a6.177,6.177,0,0,0-12.014,0,1.1,1.1,0,0,0-.851,1.073V15.93a1.1,1.1,0,0,0,1.1,1.106h.724a.308.308,0,0,0,.308-.308V13.61a4.881,4.881,0,0,1,9.445,0v3.117a.308.308,0,0,0,.308.308h.724a1.106,1.106,0,0,0,1.1-1.105V14.477A1.1,1.1,0,0,0,94.887,13.4Z" fill="#74adf7"/>
    <path id="Path_188" data-name="Path 188" d="M100.9,241.176a2.486,2.486,0,0,1,.157.765c0,1.7-1.666,3.079-3.72,3.079s-3.721-1.379-3.721-3.079a2.493,2.493,0,0,1,.158-.765,4.8,4.8,0,0,0-2.949,4.427v4.266a1.641,1.641,0,0,0,1.641,1.641h9.741a1.64,1.64,0,0,0,1.641-1.641V245.6A4.8,4.8,0,0,0,100.9,241.176Z" transform="translate(-8.458 -223.344)" fill="#74adf7"/>
    <path id="Path_189" data-name="Path 189" d="M153.031,75.509a4.233,4.233,0,0,0,3.521-2.376,5.794,5.794,0,0,0,.3-.627,5.11,5.11,0,0,0,.407-1.929,4.226,4.226,0,1,0-8.451,0,5.137,5.137,0,0,0,.407,1.929,6.085,6.085,0,0,0,.3.627A4.235,4.235,0,0,0,153.031,75.509Zm0-7.594a2.665,2.665,0,0,1,2.662,2.663c0,1.516-1.229,3.368-2.662,3.368s-2.663-1.852-2.663-3.368A2.666,2.666,0,0,1,153.031,67.915Z" transform="translate(-64.15 -55.411)" fill="#bad6fa"/>
  </g>
</svg>
