<svg xmlns="http://www.w3.org/2000/svg" width="45" height="45" viewBox="0 0 45 45">
  <g id="www" transform="translate(11.732 13.055)">
    <rect id="Rectangle_5" data-name="Rectangle 5" width="45" height="45" rx="13" transform="translate(-11.732 -13.055)" fill="#1776f1"/>
    <path id="Path_87" data-name="Path 87" d="M10.667,0a10.667,10.667,0,0,0,0,21.334,10.961,10.961,0,0,0,1.956-.178l-.729-2.187a2.414,2.414,0,0,1-.338.276v-1.3L9.9,13a2.4,2.4,0,0,1-.124-.782v1.8a19.609,19.609,0,0,0-2.453.24,19.078,19.078,0,0,1-.311-2.72H9.778v.676a2.459,2.459,0,0,1,2.445-2.436A2.616,2.616,0,0,1,13,9.9l4.9,1.636h1.609a4.8,4.8,0,0,1-.071.516l1.716.569a10.961,10.961,0,0,0,.178-1.956A10.676,10.676,0,0,0,10.667,0ZM9.778,15.8v3.449a6.233,6.233,0,0,1-2.009-3.262A18.122,18.122,0,0,1,9.778,15.8ZM3.2,5.858a13.84,13.84,0,0,0,2.382.853A20.217,20.217,0,0,0,5.236,9.76H1.822A8.9,8.9,0,0,1,3.2,5.858Zm-1.378,5.68H5.236a20.57,20.57,0,0,0,.347,3.085,13.84,13.84,0,0,0-2.382.853,8.855,8.855,0,0,1-1.378-3.938Zm5.236,7.245a8.869,8.869,0,0,1-2.711-1.876,10.72,10.72,0,0,1,1.662-.56A11.609,11.609,0,0,0,7.058,18.783ZM6.009,4.987a10.719,10.719,0,0,1-1.662-.56A8.869,8.869,0,0,1,7.058,2.551,11.609,11.609,0,0,0,6.009,4.987ZM9.778,9.76H7.014a18.711,18.711,0,0,1,.311-2.685,19.609,19.609,0,0,0,2.453.24Zm0-4.222a18.122,18.122,0,0,1-2.009-.187A6.232,6.232,0,0,1,9.778,2.089Zm1.778-3.449a6.233,6.233,0,0,1,2.009,3.262,18.122,18.122,0,0,1-2.009.187Zm0,7.671V7.316a19.609,19.609,0,0,0,2.453-.24,18.711,18.711,0,0,1,.311,2.685Zm2.72-7.209a8.869,8.869,0,0,1,2.711,1.876,10.719,10.719,0,0,1-1.662.56,11.609,11.609,0,0,0-1.049-2.436ZM16.1,9.76a20.217,20.217,0,0,0-.347-3.049,13.84,13.84,0,0,0,2.382-.853,8.9,8.9,0,0,1,1.378,3.9Z" transform="translate(0 0)" fill="#fff"/>
    <path id="Path_88" data-name="Path 88" d="M16.482,22.778h-.015a.666.666,0,0,1-.617-.456l-2.815-8.445a.667.667,0,0,1,.844-.844l8.445,2.815a.666.666,0,0,1,.028,1.254l-3.789,1.458L17.1,22.35a.667.667,0,0,1-.622.428Z" transform="translate(-1.444 -1.443)" fill="#fff"/>
  </g>
</svg>
